<svg width="69" height="69" viewBox="0 0 69 69" fill="none" xmlns="http://www.w3.org/2000/svg">
<path d="M34.5 0L40.973 8.23797L50.533 3.95177L52.4361 14.2543L62.8929 14.9018L59.7903 24.9086L68.7485 30.3415L61.3508 37.7603L66.7581 46.7339L56.7601 49.865L57.3777 60.3236L47.0698 58.4498L42.7564 67.9975L34.5 61.548L26.2436 67.9975L21.9302 58.4498L11.6223 60.3236L12.2399 49.865L2.24194 46.7339L7.64921 37.7603L0.251545 30.3415L9.20968 24.9086L6.10706 14.9018L16.5639 14.2543L18.4671 3.95177L28.027 8.23797L34.5 0Z" fill="#BE763C"/>
<path d="M14.0312 35.0098H11.8691L11.8574 34.1016H13.8203C14.1445 34.1016 14.4277 34.0469 14.6699 33.9375C14.9121 33.8281 15.0996 33.6719 15.2324 33.4688C15.3691 33.2617 15.4375 33.0156 15.4375 32.7305C15.4375 32.418 15.377 32.1641 15.2559 31.9688C15.1387 31.7695 14.957 31.625 14.7109 31.5352C14.4688 31.4414 14.1602 31.3945 13.7852 31.3945H12.1211V39H10.9902V30.4688H13.7852C14.2227 30.4688 14.6133 30.5137 14.957 30.6035C15.3008 30.6895 15.5918 30.8262 15.8301 31.0137C16.0723 31.1973 16.2559 31.4316 16.3809 31.7168C16.5059 32.002 16.5684 32.3438 16.5684 32.7422C16.5684 33.0938 16.4785 33.4121 16.2988 33.6973C16.1191 33.9785 15.8691 34.209 15.5488 34.3887C15.2324 34.5684 14.8613 34.6836 14.4355 34.7344L14.0312 35.0098ZM13.9785 39H11.4238L12.0625 38.0801H13.9785C14.3379 38.0801 14.6426 38.0176 14.8926 37.8926C15.1465 37.7676 15.3398 37.5918 15.4727 37.3652C15.6055 37.1348 15.6719 36.8633 15.6719 36.5508C15.6719 36.2344 15.6152 35.9609 15.502 35.7305C15.3887 35.5 15.2109 35.3223 14.9688 35.1973C14.7266 35.0723 14.4141 35.0098 14.0312 35.0098H12.4199L12.4316 34.1016H14.6348L14.875 34.4297C15.2852 34.4648 15.6328 34.582 15.918 34.7812C16.2031 34.9766 16.4199 35.2266 16.5684 35.5312C16.7207 35.8359 16.7969 36.1719 16.7969 36.5391C16.7969 37.0703 16.6797 37.5195 16.4453 37.8867C16.2148 38.25 15.8887 38.5273 15.4668 38.7188C15.0449 38.9062 14.5488 39 13.9785 39ZM19.1934 34.8398H21.0977C21.6094 34.8398 22.041 34.9297 22.3926 35.1094C22.7441 35.2852 23.0098 35.5293 23.1895 35.8418C23.373 36.1504 23.4648 36.502 23.4648 36.8965C23.4648 37.1895 23.4141 37.4648 23.3125 37.7227C23.2109 37.9766 23.0586 38.1992 22.8555 38.3906C22.6562 38.582 22.4082 38.7324 22.1113 38.8418C21.8184 38.9473 21.4805 39 21.0977 39H18.4023V32.6602H19.4863V38.1094H21.0977C21.4102 38.1094 21.6602 38.0527 21.8477 37.9395C22.0352 37.8262 22.1699 37.6797 22.252 37.5C22.334 37.3203 22.375 37.1328 22.375 36.9375C22.375 36.7461 22.334 36.5586 22.252 36.375C22.1699 36.1914 22.0352 36.0391 21.8477 35.918C21.6602 35.793 21.4102 35.7305 21.0977 35.7305H19.1934V34.8398ZM25.7207 32.6602V39H24.6367V32.6602H25.7207ZM31.7148 32.6602V33.5566H28.7852V39H27.7012V32.6602H31.7148ZM32.2539 35.9004V35.7656C32.2539 35.3086 32.3203 34.8848 32.4531 34.4941C32.5859 34.0996 32.7773 33.7578 33.0273 33.4688C33.2773 33.1758 33.5801 32.9492 33.9355 32.7891C34.291 32.625 34.6895 32.543 35.1309 32.543C35.5762 32.543 35.9766 32.625 36.332 32.7891C36.6914 32.9492 36.9961 33.1758 37.2461 33.4688C37.5 33.7578 37.6934 34.0996 37.8262 34.4941C37.959 34.8848 38.0254 35.3086 38.0254 35.7656V35.9004C38.0254 36.3574 37.959 36.7812 37.8262 37.1719C37.6934 37.5625 37.5 37.9043 37.2461 38.1973C36.9961 38.4863 36.6934 38.7129 36.3379 38.877C35.9863 39.0371 35.5879 39.1172 35.1426 39.1172C34.6973 39.1172 34.2969 39.0371 33.9414 38.877C33.5859 38.7129 33.2812 38.4863 33.0273 38.1973C32.7773 37.9043 32.5859 37.5625 32.4531 37.1719C32.3203 36.7812 32.2539 36.3574 32.2539 35.9004ZM33.3379 35.7656V35.9004C33.3379 36.2168 33.375 36.5156 33.4492 36.7969C33.5234 37.0742 33.6348 37.3203 33.7832 37.5352C33.9355 37.75 34.125 37.9199 34.3516 38.0449C34.5781 38.166 34.8418 38.2266 35.1426 38.2266C35.4395 38.2266 35.6992 38.166 35.9219 38.0449C36.1484 37.9199 36.3359 37.75 36.4844 37.5352C36.6328 37.3203 36.7441 37.0742 36.8184 36.7969C36.8965 36.5156 36.9355 36.2168 36.9355 35.9004V35.7656C36.9355 35.4531 36.8965 35.1582 36.8184 34.8809C36.7441 34.5996 36.6309 34.3516 36.4785 34.1367C36.3301 33.918 36.1426 33.7461 35.916 33.6211C35.6934 33.4961 35.4316 33.4336 35.1309 33.4336C34.834 33.4336 34.5723 33.4961 34.3457 33.6211C34.123 33.7461 33.9355 33.918 33.7832 34.1367C33.6348 34.3516 33.5234 34.5996 33.4492 34.8809C33.375 35.1582 33.3379 35.4531 33.3379 35.7656ZM40.1055 32.6602H41.1895L41.0957 35.0332C41.0723 35.6348 41.0039 36.1543 40.8906 36.5918C40.7773 37.0293 40.6328 37.4023 40.457 37.7109C40.2812 38.0156 40.084 38.2715 39.8652 38.4785C39.6504 38.6855 39.4277 38.8594 39.1973 39H38.6582L38.6875 38.1152L38.9102 38.1094C39.0391 37.957 39.1641 37.8008 39.2852 37.6406C39.4062 37.4766 39.5176 37.2832 39.6191 37.0605C39.7207 36.834 39.8047 36.5586 39.8711 36.2344C39.9414 35.9062 39.9863 35.5059 40.0059 35.0332L40.1055 32.6602ZM40.375 32.6602H44.1895V39H43.1055V33.6621H40.375V32.6602ZM38.4121 38.1094H45.0039V40.8691H43.9199V39H39.4961V40.8691H38.4062L38.4121 38.1094ZM50.5059 35.4082V36.2871H47.1543V35.4082H50.5059ZM47.3828 32.6602V39H46.2988V32.6602H47.3828ZM51.3848 32.6602V39H50.2949V32.6602H51.3848ZM52.8438 35.9004V35.7656C52.8438 35.3086 52.9102 34.8848 53.043 34.4941C53.1758 34.0996 53.3672 33.7578 53.6172 33.4688C53.8672 33.1758 54.1699 32.9492 54.5254 32.7891C54.8809 32.625 55.2793 32.543 55.7207 32.543C56.166 32.543 56.5664 32.625 56.9219 32.7891C57.2812 32.9492 57.5859 33.1758 57.8359 33.4688C58.0898 33.7578 58.2832 34.0996 58.416 34.4941C58.5488 34.8848 58.6152 35.3086 58.6152 35.7656V35.9004C58.6152 36.3574 58.5488 36.7812 58.416 37.1719C58.2832 37.5625 58.0898 37.9043 57.8359 38.1973C57.5859 38.4863 57.2832 38.7129 56.9277 38.877C56.5762 39.0371 56.1777 39.1172 55.7324 39.1172C55.2871 39.1172 54.8867 39.0371 54.5312 38.877C54.1758 38.7129 53.8711 38.4863 53.6172 38.1973C53.3672 37.9043 53.1758 37.5625 53.043 37.1719C52.9102 36.7812 52.8438 36.3574 52.8438 35.9004ZM53.9277 35.7656V35.9004C53.9277 36.2168 53.9648 36.5156 54.0391 36.7969C54.1133 37.0742 54.2246 37.3203 54.373 37.5352C54.5254 37.75 54.7148 37.9199 54.9414 38.0449C55.168 38.166 55.4316 38.2266 55.7324 38.2266C56.0293 38.2266 56.2891 38.166 56.5117 38.0449C56.7383 37.9199 56.9258 37.75 57.0742 37.5352C57.2227 37.3203 57.334 37.0742 57.4082 36.7969C57.4863 36.5156 57.5254 36.2168 57.5254 35.9004V35.7656C57.5254 35.4531 57.4863 35.1582 57.4082 34.8809C57.334 34.5996 57.2207 34.3516 57.0684 34.1367C56.9199 33.918 56.7324 33.7461 56.5059 33.6211C56.2832 33.4961 56.0215 33.4336 55.7207 33.4336C55.4238 33.4336 55.1621 33.4961 54.9355 33.6211C54.7129 33.7461 54.5254 33.918 54.373 34.1367C54.2246 34.3516 54.1133 34.5996 54.0391 34.8809C53.9648 35.1582 53.9277 35.4531 53.9277 35.7656Z" fill="white"/>
</svg>
