<svg width="34" height="34" viewBox="0 0 34 34" fill="none" xmlns="http://www.w3.org/2000/svg">
<path d="M17 29.4228C14.5421 29.4228 12.1408 28.6946 10.098 27.329C8.05514 25.9647 6.46281 24.0239 5.52215 21.7544C4.58148 19.4849 4.33641 16.9859 4.81524 14.5761C5.29407 12.1664 6.4784 9.95355 8.21523 8.2153C9.95206 6.47847 12.1663 5.29554 14.5761 4.81529C16.9858 4.33645 19.4834 4.58297 21.7543 5.52222C24.0238 6.46288 25.9647 8.05521 27.3289 10.098C28.6946 12.1409 29.4227 14.5436 29.4227 17.0001C29.4199 20.2938 28.1095 23.4516 25.7805 25.7806C23.4515 28.1096 20.2937 29.42 17 29.4228ZM17 5.88488C14.8013 5.88488 12.6522 6.53655 10.8247 7.75772C8.99581 8.97889 7.57206 10.7157 6.73056 12.7458C5.88906 14.7773 5.66949 17.0128 6.09732 19.169C6.52657 21.3251 7.58481 23.3056 9.14031 24.8597C10.6944 26.4138 12.6749 27.4735 14.8311 27.9013C16.9872 28.3305 19.2227 28.111 21.2528 27.2695C23.2843 26.428 25.0212 25.0028 26.2423 23.1753C27.4635 21.3478 28.1151 19.1987 28.1151 17.0001C28.1123 14.0534 26.9393 11.2285 24.8554 9.14462C22.7715 7.0607 19.9467 5.88771 17 5.88488Z" fill="#BE763C"/>
<path d="M15.7307 20.2428C15.4728 20.2442 15.2178 20.1946 14.9798 20.0955C14.7418 19.9963 14.5265 19.8518 14.3452 19.6676L12.0827 17.3528C12.0218 17.2919 11.9722 17.2196 11.9397 17.1403C11.9071 17.061 11.8887 16.976 11.8887 16.8895C11.8887 16.8031 11.9071 16.7167 11.9397 16.6374C11.9722 16.558 12.0218 16.4858 12.0827 16.4249C12.2046 16.3044 12.3689 16.2379 12.5403 16.2379C12.7117 16.2379 12.8761 16.3044 12.9979 16.4249L15.2731 18.7C15.3977 18.8205 15.5649 18.8884 15.7377 18.8884C15.9106 18.8884 16.0778 18.8205 16.2024 18.7L21.0007 13.8876C21.0616 13.8267 21.1352 13.7785 21.2146 13.7459C21.2939 13.7119 21.3789 13.6949 21.4653 13.6949C21.5517 13.6949 21.6368 13.7119 21.7161 13.7459C21.7968 13.7785 21.8691 13.8267 21.93 13.8876C21.9909 13.9485 22.0391 14.0208 22.0717 14.1015C22.1057 14.1809 22.1212 14.2659 22.1212 14.3523C22.1212 14.4387 22.1057 14.5237 22.0717 14.603C22.0391 14.6824 21.9909 14.756 21.93 14.817L17.1176 19.6152C16.9419 19.8107 16.728 19.9665 16.49 20.0742C16.252 20.1833 15.9928 20.2399 15.7307 20.2428Z" fill="#BE763C"/>
</svg>
