<svg width="34" height="34" viewBox="0 0 34 34" fill="none" xmlns="http://www.w3.org/2000/svg">
<path d="M4.30225 16.7365C4.30366 15.5918 4.46091 14.4514 4.77258 13.3493L4.85049 12.971L4.89017 12.8138C4.91567 12.7316 4.95676 12.6537 5.01201 12.5885C5.06726 12.5219 5.13667 12.4681 5.21317 12.4284C5.28967 12.3902 5.37327 12.3661 5.45969 12.3604C5.5461 12.3548 5.63251 12.3661 5.71468 12.3944C5.87618 12.4511 6.01077 12.5687 6.08869 12.7231C6.1666 12.8761 6.18219 13.0546 6.13261 13.2189L5.97533 13.6892C5.51775 15.3453 5.44975 17.0836 5.77416 18.7694C6.1 20.4552 6.81117 22.0433 7.851 23.4104C8.89225 24.7761 10.2353 25.8825 11.7738 26.6447C13.3137 27.4054 15.008 27.8007 16.725 27.7993C17.7096 27.8049 18.6913 27.6732 19.6405 27.4068L16.7123 25.2365C16.5904 25.1472 16.5026 25.0183 16.4657 24.8724C16.4275 24.7265 16.4417 24.5721 16.504 24.4361C16.5678 24.2987 16.6754 24.1882 16.8114 24.1216C16.9474 24.055 17.1004 24.038 17.2477 24.0734C17.3327 24.0904 17.4135 24.1258 17.4829 24.1768L21.6947 27.3034C21.7627 27.3544 21.8207 27.4182 21.8647 27.4933C21.9086 27.5669 21.9369 27.6477 21.9482 27.7327C21.961 27.8177 21.9568 27.9055 21.9355 27.9877C21.9143 28.0713 21.876 28.1492 21.825 28.2186L18.7126 32.4162C18.6077 32.5536 18.4548 32.6457 18.2834 32.6726C18.1134 32.6995 17.9391 32.6584 17.7974 32.5593C17.6586 32.453 17.5665 32.2972 17.5396 32.1243C17.5127 31.9515 17.5538 31.7744 17.6529 31.6313L19.8247 28.7144C18.8188 28.9907 17.7804 29.1267 16.7378 29.121C13.4483 29.121 10.2934 27.8177 7.96293 25.4972C5.63252 23.1753 4.315 20.026 4.30225 16.7365Z" fill="#BE763C"/>
<path d="M29.6976 17.2634C29.6962 18.408 29.5375 19.5484 29.2273 20.6506L29.1479 21.0289L29.1097 21.1861C29.0842 21.2683 29.0417 21.3448 28.9865 21.4114C28.9312 21.478 28.8632 21.5318 28.7867 21.5714C28.7088 21.6097 28.6252 21.6324 28.5388 21.6394C28.4524 21.6451 28.3674 21.6324 28.2852 21.604C28.1223 21.5474 27.9877 21.4312 27.9098 21.2768C27.8319 21.1238 27.8163 20.9453 27.8673 20.781L28.0231 20.3106C28.4807 18.6545 28.5501 16.9163 28.2243 15.2305C27.8985 13.5446 27.1887 11.9551 26.1475 10.5895C25.1062 9.22379 23.7646 8.11739 22.2247 7.35523C20.6862 6.59448 18.9919 6.19781 17.2749 6.20064C16.2889 6.19497 15.3072 6.32672 14.358 6.59164L17.2876 8.76338C17.4095 8.85263 17.4959 8.98014 17.5341 9.12606C17.5724 9.27198 17.5582 9.42638 17.4945 9.5638C17.4321 9.70121 17.323 9.81169 17.1885 9.87827C17.0525 9.94344 16.8981 9.96185 16.7507 9.92644C16.6671 9.90802 16.5864 9.87261 16.5155 9.82302L12.3052 6.69644C12.2358 6.64544 12.1792 6.58031 12.1352 6.50664C12.0913 6.43298 12.0629 6.35079 12.0502 6.26579C12.0374 6.18079 12.0431 6.09435 12.0644 6.01219C12.0856 5.9286 12.1225 5.85069 12.1749 5.78128L15.2873 1.58372C15.3907 1.4463 15.5451 1.35422 15.7151 1.3273C15.8865 1.30039 16.0608 1.34003 16.2024 1.44062C16.3413 1.54687 16.4334 1.70271 16.4603 1.87554C16.4872 2.04838 16.4461 2.22545 16.3455 2.36853L14.1752 5.28405C15.181 5.00922 16.2195 4.8732 17.2607 4.87887C20.5502 4.87887 23.7066 6.18222 26.037 8.50272C28.3674 10.8246 29.6834 13.9739 29.6976 17.2634Z" fill="#BE763C"/>
</svg>
