<svg width="34" height="34" viewBox="0 0 34 34" fill="none" xmlns="http://www.w3.org/2000/svg">
<path d="M17.0041 7.95044C16.3255 7.95327 15.661 8.15727 15.0972 8.53694C14.5334 8.91661 14.0942 9.45494 13.8364 10.0825C13.5785 10.7115 13.5119 11.4029 13.6465 12.0687C13.7797 12.7359 14.1084 13.3465 14.59 13.8268C15.0717 14.3056 15.6851 14.6329 16.351 14.7646C17.0182 14.8964 17.7095 14.8269 18.3371 14.5663C18.9647 14.3056 19.5002 13.865 19.8785 13.2998C20.2553 12.7345 20.4564 12.0701 20.4564 11.3901C20.4536 10.4764 20.0881 9.60227 19.4407 8.95769C18.7933 8.31311 17.9178 7.95044 17.0041 7.95044ZM17.0041 13.5222C16.5833 13.5194 16.1725 13.3919 15.824 13.1567C15.4755 12.9201 15.2034 12.5858 15.0448 12.1962C14.8847 11.8066 14.845 11.3788 14.9286 10.9665C15.0122 10.5543 15.2162 10.1746 15.5151 9.87852C15.814 9.58102 16.1937 9.37986 16.606 9.29911C17.0196 9.21694 17.4474 9.26086 17.8356 9.42236C18.2252 9.58386 18.5567 9.85727 18.7905 10.2072C19.0242 10.5571 19.1489 10.9694 19.1489 11.3901C19.1418 11.9554 18.9137 12.4951 18.5128 12.8946C18.1119 13.2927 17.5693 13.5179 17.0041 13.5222Z" fill="#BE763C"/>
<path d="M32.0037 24.1132C31.8097 23.1456 31.4073 22.2318 30.8251 21.4357C30.2414 20.6395 29.492 19.9807 28.6278 19.5033C27.7637 19.0273 26.806 18.744 25.8228 18.676C24.8382 18.6066 23.8508 18.7539 22.9286 19.1052C21.3192 17.6078 19.2028 16.7762 17.0041 16.7762C14.8069 16.7762 12.6904 17.6078 11.081 19.1052C10.1574 18.7539 9.16992 18.6066 8.18392 18.676C7.19934 18.744 6.24026 19.0273 5.3761 19.5033C4.51051 19.9807 3.75967 20.6395 3.176 21.4357C2.59092 22.2318 2.18717 23.1456 1.99167 24.1132C1.94917 24.3427 1.95627 24.5778 2.01294 24.8031C2.06961 25.0283 2.17444 25.2394 2.31894 25.4222C2.47903 25.6148 2.67735 25.7707 2.90402 25.8797C3.12927 25.9874 3.37574 26.0455 3.62649 26.0497H30.3562C30.6069 26.0483 30.8548 25.9917 31.0801 25.8826C31.3067 25.7749 31.5065 25.6162 31.6638 25.4222C31.8168 25.2437 31.9272 25.034 31.9853 24.8073C32.0448 24.5807 32.0505 24.3427 32.0037 24.1132ZM3.62649 24.7932C3.50749 24.7875 3.39561 24.7365 3.31344 24.6501C3.26102 24.5778 3.23691 24.49 3.24824 24.4022C3.49616 23.1583 4.17053 22.0392 5.15228 21.2373C6.13544 20.4355 7.36651 20.0006 8.63584 20.0077C9.15151 20.002 9.66574 20.0643 10.1658 20.1904C9.32574 21.2402 8.74351 22.4727 8.46585 23.7873C8.39926 24.1231 8.42617 24.4716 8.54375 24.7932H3.62649ZM24.1186 24.5325C24.0506 24.6132 23.9401 24.677 23.8466 24.7223C23.7517 24.7677 23.6483 24.7917 23.5434 24.7932H10.4662C10.3613 24.7917 10.2579 24.7677 10.163 24.7223C10.0681 24.677 9.98449 24.6132 9.91649 24.5325C9.85699 24.4659 9.81308 24.3866 9.789 24.3002C9.7635 24.2137 9.75785 24.1231 9.77343 24.0352C10.01 22.8098 10.5597 21.6652 11.3686 20.7132C11.6576 20.3717 11.982 20.0615 12.3362 19.7852C13.6551 18.71 15.3041 18.1235 17.0041 18.1235C18.7055 18.1235 20.3545 18.71 21.6734 19.7852C22.0262 20.0615 22.3506 20.3717 22.641 20.7132C23.4542 21.6637 24.0081 22.8084 24.2489 24.0352C24.2659 24.1231 24.2617 24.2123 24.239 24.2987C24.2163 24.3837 24.1752 24.4645 24.1186 24.5325ZM30.6565 24.6501C30.5786 24.7351 30.4454 24.7861 30.3292 24.7932H25.4517C25.5692 24.4716 25.5962 24.1231 25.531 23.7873C25.2802 22.4755 24.7193 21.243 23.8962 20.1904C24.3693 20.0601 24.8567 19.9935 25.3482 19.9949C26.6133 19.9907 27.8416 20.427 28.8219 21.2288C29.8022 22.0307 30.4737 23.147 30.7217 24.388C30.733 24.4347 30.7316 24.4815 30.7202 24.5268C30.7089 24.5722 30.6877 24.6147 30.6565 24.6501Z" fill="#BE763C"/>
<path d="M25.3483 11.9255C24.7972 11.9283 24.2603 12.0941 23.8041 12.4015C23.3479 12.7089 22.9924 13.1452 22.7841 13.6552C22.5744 14.1638 22.522 14.7234 22.6311 15.2631C22.7388 15.8029 23.0051 16.2973 23.3961 16.6855C23.7857 17.0736 24.2815 17.3371 24.8227 17.4448C25.3624 17.5511 25.922 17.4944 26.4292 17.2833C26.9378 17.0722 27.3727 16.7152 27.6773 16.2576C27.9833 15.8001 28.1462 15.2617 28.1462 14.7121C28.1419 13.9711 27.8459 13.2628 27.3217 12.7415C26.7975 12.2187 26.0878 11.9255 25.3483 11.9255ZM25.3483 16.1896C25.0564 16.1868 24.7717 16.0976 24.5309 15.9332C24.2886 15.7703 24.1016 15.538 23.9911 15.2674C23.882 14.9982 23.8551 14.7007 23.9132 14.4146C23.9713 14.1298 24.113 13.8677 24.3198 13.6623C24.528 13.4569 24.7915 13.3166 25.0777 13.2614C25.3638 13.2047 25.6599 13.2359 25.9291 13.3478C26.1983 13.4597 26.4278 13.6496 26.5907 13.8918C26.7522 14.1341 26.8386 14.4202 26.8386 14.7121C26.8344 15.1045 26.6757 15.4799 26.3966 15.7576C26.1175 16.0338 25.7407 16.1896 25.3483 16.1896Z" fill="#BE763C"/>
<path d="M8.66143 11.9255C8.11176 11.9312 7.57625 12.0983 7.1215 12.4086C6.66675 12.7174 6.314 13.1537 6.10716 13.6637C5.90033 14.1723 5.8479 14.7319 5.9584 15.2702C6.0689 15.81 6.33669 16.303 6.72769 16.6897C7.11727 17.0765 7.61451 17.34 8.15426 17.4448C8.69401 17.5511 9.25217 17.4944 9.75933 17.2819C10.2665 17.0708 10.7 16.7138 11.006 16.2562C11.3106 15.7987 11.4735 15.2617 11.4735 14.7121C11.4707 14.3437 11.397 13.9811 11.2553 13.6411C11.1123 13.3025 10.9054 12.9951 10.6448 12.7358C10.3827 12.478 10.0738 12.2726 9.73383 12.1337C9.39383 11.9949 9.02834 11.9241 8.66143 11.9255ZM8.66143 16.1897C8.37101 16.184 8.08767 16.0933 7.84825 15.9276C7.60884 15.7618 7.42324 15.5295 7.31558 15.2589C7.20791 14.9883 7.18099 14.6922 7.24191 14.4075C7.30141 14.1227 7.44449 13.8621 7.65133 13.6581C7.85958 13.4541 8.12308 13.3152 8.40925 13.26C8.69541 13.2062 8.99009 13.2359 9.25926 13.3492C9.52701 13.4612 9.7565 13.651 9.918 13.8932C10.0795 14.1355 10.1659 14.4202 10.1659 14.7121C10.1631 14.9076 10.1234 15.1002 10.0469 15.2816C9.97042 15.4615 9.85852 15.6244 9.71969 15.7618C9.57944 15.8992 9.41507 16.0069 9.23232 16.0806C9.05099 16.1542 8.85693 16.1911 8.66143 16.1897Z" fill="#BE763C"/>
</svg>
