<svg width="34" height="34" viewBox="0 0 34 34" fill="none" xmlns="http://www.w3.org/2000/svg">
<path d="M26.1544 10.4423H25.1075V8.48163C25.1075 7.9603 24.902 7.46162 24.5337 7.09471C24.1654 6.72637 23.6668 6.51953 23.1468 6.51953H10.8544C10.3345 6.51953 9.83583 6.72637 9.46749 7.09471C9.09916 7.46162 8.89232 7.9603 8.89232 8.48163V10.4423H7.84681C6.97839 10.4465 6.14683 10.7936 5.53483 11.4084C4.92141 12.0233 4.57717 12.8563 4.57717 13.7247V24.1868C4.57575 24.6175 4.6593 25.0452 4.82221 25.4433C4.98513 25.8428 5.226 26.2055 5.52916 26.5115C5.83375 26.8175 6.19358 27.0598 6.59166 27.227C6.98975 27.3941 7.41614 27.4805 7.84681 27.4819H26.1544C26.5851 27.4805 27.0115 27.3941 27.4095 27.227C27.8076 27.0598 28.1675 26.8175 28.472 26.5115C28.7752 26.2055 29.0147 25.8428 29.179 25.4433C29.3419 25.0452 29.4255 24.6175 29.4241 24.1868V13.7247C29.4241 12.8563 29.0798 12.0233 28.4664 11.4084C27.8544 10.7936 27.0228 10.4465 26.1544 10.4423ZM10.1999 8.48163C10.1999 8.30738 10.2693 8.14159 10.3926 8.01834C10.5144 7.89651 10.6816 7.82708 10.8544 7.82708H23.1468C23.3197 7.82708 23.4868 7.89651 23.6087 8.01834C23.7319 8.14159 23.7999 8.30738 23.7999 8.48163V10.4423H10.1999V8.48163ZM5.88471 13.712C5.88896 13.1921 6.09582 12.6962 6.46274 12.3293C6.83107 11.961 7.32689 11.7541 7.84681 11.7499H26.1544C26.6757 11.7541 27.1744 11.9638 27.5427 12.3335C27.9097 12.7033 28.1165 13.2034 28.1165 13.7247V18.0923H19.6675C19.5216 17.4959 19.1801 16.9646 18.6956 16.5849C18.2125 16.2053 17.6147 15.9984 16.9999 15.9984C16.3851 15.9984 15.7887 16.2053 15.3042 16.5849C14.8211 16.9646 14.4782 17.4959 14.3323 18.0923H5.88471V13.712ZM18.4392 18.7199C18.4406 18.9494 18.3826 19.1746 18.2692 19.3743C18.1531 19.6109 17.9717 19.8121 17.7479 19.951C17.5241 20.0912 17.2648 20.1649 16.9999 20.1649C16.7364 20.1649 16.4771 20.0912 16.2533 19.951C16.028 19.8121 15.8482 19.6109 15.732 19.3743C15.6172 19.176 15.5563 18.9494 15.5563 18.7199C15.5563 18.4904 15.6172 18.2651 15.732 18.0668C15.8482 17.8288 16.028 17.629 16.2533 17.4888C16.4771 17.3499 16.7364 17.2748 16.9999 17.2748C17.2648 17.2748 17.5241 17.3499 17.7479 17.4888C17.9717 17.629 18.1531 17.8288 18.2692 18.0668C18.3826 18.2651 18.4406 18.4918 18.4392 18.7199ZM28.1165 24.1471C28.1179 24.4064 28.0683 24.6642 27.9706 24.9036C27.8728 25.1444 27.7283 25.3626 27.547 25.5467C27.3642 25.7323 27.1475 25.8783 26.9095 25.9803C26.6701 26.0809 26.4137 26.1333 26.1544 26.1347H7.84681C7.58756 26.1333 7.33116 26.0809 7.09174 25.9803C6.85374 25.8783 6.63697 25.7323 6.45422 25.5467C6.27147 25.3626 6.12842 25.1444 6.03067 24.9036C5.93292 24.6642 5.8833 24.4064 5.88471 24.1471V19.3998H14.3323C14.4782 19.9977 14.8211 20.5289 15.3042 20.9086C15.7887 21.2883 16.3851 21.4951 16.9999 21.4951C17.6147 21.4951 18.2125 21.2883 18.6956 20.9086C19.1801 20.5289 19.5216 19.9977 19.6675 19.3998H28.1165V24.1471Z" fill="#BE763C"/>
</svg>
