<svg width="34" height="34" viewBox="0 0 34 34" fill="none" xmlns="http://www.w3.org/2000/svg">
<path d="M26.354 14.3438L19.6192 10.421L19.3968 9.75378C19.3189 9.51861 19.214 9.16588 19.0568 8.77346C18.7111 7.85971 18.2734 6.98279 17.7492 6.15829C16.6513 4.68779 15.0816 3.63945 13.3037 3.19037C12.0429 2.86737 10.7254 2.84613 9.45602 3.12521C8.18527 3.40288 6.99953 3.97519 5.98945 4.79544C4.98078 5.61569 4.17753 6.6598 3.64487 7.84555C3.11078 9.0313 2.86288 10.3261 2.91954 11.6238C2.99038 12.8237 3.31617 13.9939 3.87292 15.0578C4.42967 16.1217 5.20604 17.0553 6.14954 17.7962C6.92729 18.3034 7.76738 18.7071 8.64713 19.0004C9.09196 19.1704 9.47162 19.3007 9.73371 19.3786L10.3995 19.6011L14.3237 26.3486C14.4909 26.6405 14.7331 26.8827 15.0249 27.0499C15.3168 27.217 15.6469 27.3049 15.984 27.3034H16.1016C16.4615 27.285 16.8085 27.166 17.1046 26.9606C17.3993 26.7538 17.6316 26.4705 17.7747 26.1404L19.2919 22.5704L20.5089 22.9755C20.7072 23.0379 20.914 23.069 21.1237 23.0662C21.6153 23.0563 22.0842 22.8551 22.4313 22.5038C22.6919 22.253 22.8761 21.9329 22.9639 21.5815C23.0518 21.2302 23.039 20.8619 22.9271 20.5162L22.5219 19.288L26.092 17.7707C26.4192 17.6248 26.6997 17.391 26.9037 17.095C27.1063 16.8003 27.2239 16.4546 27.2437 16.0962C27.272 15.7506 27.204 15.4035 27.0468 15.0946C26.8895 14.7844 26.6501 14.5251 26.354 14.3438ZM16.5847 25.6559C16.538 25.7635 16.4614 25.8542 16.3637 25.9194C16.2674 25.9845 16.1526 26.02 16.0365 26.0228C15.9217 26.0384 15.8055 26.02 15.7035 25.969C15.6001 25.918 15.5151 25.8358 15.4613 25.7338L12.3488 20.3207L18.0368 22.2304L16.5847 25.6559ZM21.5671 21.6028C21.4878 21.6821 21.3858 21.7402 21.2753 21.7671C21.1648 21.7955 21.0486 21.7926 20.9395 21.7586L10.1771 18.1631C9.92919 18.0838 9.57644 17.9804 9.1571 17.8231C8.39352 17.561 7.66113 17.214 6.97404 16.7904C6.18213 16.1571 5.53186 15.3638 5.0672 14.4628C4.60395 13.5604 4.33478 12.5716 4.27953 11.5586C4.2427 10.8461 4.31776 10.1306 4.50192 9.44073C4.73142 8.55248 5.13519 7.71664 5.68911 6.98564C6.24302 6.25322 6.93577 5.63694 7.72768 5.17369C8.52102 4.71044 9.39653 4.41014 10.306 4.28689C11.2169 4.16364 12.142 4.22168 13.0289 4.45827C14.4937 4.82093 15.7914 5.6752 16.7037 6.87795C17.157 7.61886 17.5381 8.40371 17.8413 9.21829C17.9716 9.58379 18.0765 9.89829 18.1416 10.1335L21.7371 20.9214C21.7782 21.0404 21.7839 21.1665 21.7541 21.2869C21.7244 21.4087 21.6592 21.5178 21.5671 21.6028ZM26.0013 16.0438C25.9985 16.1614 25.9489 16.2747 25.8851 16.3724C25.82 16.4702 25.7279 16.5467 25.6216 16.5934L22.2089 18.098L20.2992 12.3831L25.6995 15.5083C25.793 15.5621 25.8709 15.64 25.9233 15.735C25.9772 15.8299 26.0041 15.9361 26.0013 16.0438Z" fill="#BE763C"/>
<path d="M11.8263 15.0238C11.4055 15.0252 10.9876 14.943 10.5994 14.7815C10.2113 14.62 9.85854 14.382 9.56387 14.0831C8.96462 13.4824 8.62744 12.6693 8.62744 11.8207C8.62744 10.9721 8.96462 10.1589 9.56387 9.55826C9.85712 9.26076 10.207 9.02418 10.5938 8.86268C10.9791 8.70118 11.3942 8.61763 11.8121 8.61621C12.2328 8.61621 12.6494 8.69834 13.0375 8.86126C13.4271 9.02276 13.7784 9.25935 14.0745 9.55826C14.6709 10.1603 15.0053 10.9735 15.0053 11.8207C15.0053 12.6679 14.6709 13.481 14.0745 14.0831C13.7827 14.382 13.4328 14.62 13.046 14.7815C12.6593 14.9444 12.2442 15.0266 11.8263 15.0238ZM11.8263 9.92376C11.3333 9.93226 10.8629 10.1348 10.5173 10.4862C10.2566 10.7497 10.0795 11.084 10.0058 11.4481C9.9336 11.8122 9.969 12.189 10.1078 12.5318C10.2467 12.8761 10.4833 13.1722 10.7893 13.3819C11.0939 13.5929 11.4551 13.7091 11.8263 13.7162C12.196 13.7091 12.5573 13.5929 12.8618 13.3819C13.1678 13.1722 13.4044 12.8761 13.5433 12.5318C13.6821 12.189 13.7175 11.8122 13.6453 11.4481C13.5716 11.084 13.3945 10.7497 13.1339 10.4862C12.9639 10.3105 12.7613 10.1703 12.536 10.0739C12.3122 9.9762 12.0699 9.92659 11.8263 9.92376Z" fill="#BE763C"/>
<path d="M24.1047 31.0702H25.3344C25.6957 31.0702 25.9875 30.777 25.9875 30.4158V29.1733C25.9875 28.8121 25.6957 28.5203 25.3344 28.5203H24.1047C23.7435 28.5203 23.4517 28.8121 23.4517 29.1733V30.4158C23.4517 30.777 23.7435 31.0702 24.1047 31.0702Z" fill="#BE763C"/>
<path d="M29.2044 25.9703H30.434C30.7953 25.9703 31.0871 25.6771 31.0871 25.3158V24.0734C31.0871 23.7121 30.7953 23.4203 30.434 23.4203H29.2044C28.8431 23.4203 28.5513 23.7121 28.5513 24.0734V25.3158C28.5513 25.6771 28.8431 25.9703 29.2044 25.9703Z" fill="#BE763C"/>
<path d="M24.1047 25.9703H25.3344C25.6957 25.9703 25.9875 25.6771 25.9875 25.3158V24.0734C25.9875 23.7121 25.6957 23.4203 25.3344 23.4203H24.1047C23.7435 23.4203 23.4517 23.7121 23.4517 24.0734V25.3158C23.4517 25.6771 23.7435 25.9703 24.1047 25.9703Z" fill="#BE763C"/>
</svg>
