<svg width="119" height="97" viewBox="0 0 119 97" fill="none" xmlns="http://www.w3.org/2000/svg">
<path d="M56.1924 24.5848L98.8418 57.0848L98.8418 96.0848L3.19247 24.5848L56.1924 24.5848Z" fill="#BE763C"/>
<path d="M52.8981 44.4906C53.0847 44.2572 53.2128 44.022 53.2822 43.7849C53.3599 43.547 53.3681 43.2835 53.3067 42.9943C53.2499 42.7088 53.119 42.3753 52.9139 41.9938C52.7134 41.6159 52.4323 41.1699 52.0707 40.6557C51.6935 40.1141 51.3772 39.5949 51.1218 39.098C50.87 38.5967 50.6956 38.1158 50.5984 37.6556C50.5013 37.1953 50.498 36.7538 50.5885 36.331C50.6789 35.9082 50.8797 35.5023 51.1907 35.1133C51.5017 34.7243 51.869 34.4291 52.2927 34.2277C52.7163 34.0262 53.1738 33.9232 53.6652 33.9184C54.1648 33.9128 54.6778 34.0078 55.204 34.2035C55.7302 34.3992 56.2496 34.702 56.7622 35.1118C57.5127 35.7118 58.0336 36.3646 58.3248 37.0701C58.6242 37.7746 58.7264 38.4677 58.6314 39.1495C58.5401 39.8267 58.2859 40.4261 57.8687 40.9478L56.5507 39.894C56.8508 39.5188 57.036 39.1229 57.1063 38.7066C57.1803 38.2856 57.1207 37.8629 56.9275 37.4383C56.738 37.0092 56.3938 36.5952 55.895 36.1964C55.4236 35.8195 54.9779 35.5794 54.5578 35.4761C54.1378 35.3728 53.7553 35.3821 53.4103 35.5039C53.07 35.6294 52.7754 35.8477 52.5265 36.1589C52.3582 36.3694 52.248 36.5964 52.1959 36.8398C52.1521 37.0823 52.1654 37.3518 52.236 37.6483C52.3111 37.9484 52.4457 38.2773 52.6398 38.6351C52.8385 38.9965 53.098 39.399 53.4184 39.8427C53.8578 40.4566 54.2048 41.0266 54.4593 41.5527C54.7139 42.0788 54.8751 42.5716 54.9429 43.0309C55.019 43.4894 54.9967 43.9254 54.876 44.339C54.7636 44.7518 54.5518 45.1526 54.2408 45.5416C53.9152 45.9489 53.5382 46.2515 53.11 46.4493C52.6818 46.647 52.2211 46.74 51.7279 46.7283C51.2346 46.7165 50.7217 46.6027 50.1891 46.3869C49.6647 46.1702 49.1393 45.8514 48.613 45.4306C48.1508 45.0611 47.7467 44.6329 47.4007 44.1462C47.0592 43.6631 46.8079 43.1471 46.6467 42.5981C46.49 42.0528 46.4519 41.5046 46.5323 40.9537C46.6209 40.4019 46.8646 39.8766 47.2634 39.3778L48.5814 40.4316C48.307 40.7748 48.1374 41.123 48.0725 41.4763C48.0113 41.8249 48.0311 42.1708 48.1318 42.514C48.2371 42.8607 48.4051 43.1901 48.6358 43.5021C48.8748 43.8132 49.1544 44.0968 49.4747 44.3529C49.937 44.7225 50.3795 44.9712 50.8023 45.0992C51.2251 45.2272 51.614 45.2381 51.969 45.1319C52.3286 45.0293 52.6383 44.8155 52.8981 44.4906ZM64.8821 43.2807L54.29 49.7446L52.9377 48.6633L64.7389 41.7146L65.6107 42.4117L64.8821 43.2807ZM60.3721 54.6075L64.3398 42.8471L65.0272 41.9451L65.899 42.6422L61.7313 55.6942L60.3721 54.6075ZM63.1588 50.7702L62.2916 51.8548L56.6763 47.3652L57.5435 46.2806L63.1588 50.7702ZM69.993 60.5332L69.1313 61.6109L64.1339 57.6152L64.9956 56.5375L69.993 60.5332ZM72.3861 47.8289L64.3947 57.8238L63.0699 56.7645L71.0612 46.7696L72.3861 47.8289ZM77.8599 66.8231L76.9982 67.9008L71.7056 63.6691L72.5673 62.5914L77.8599 66.8231ZM79.9647 53.8883L71.9733 63.8832L70.6484 62.8239L78.6398 52.829L79.9647 53.8883ZM80.8535 61.6433L79.9918 62.7211L75.3994 59.0492L76.2611 57.9715L80.8535 61.6433ZM84.9209 57.851L84.0537 58.9356L78.8298 54.7588L79.6969 53.6742L84.9209 57.851Z" fill="white"/>
</svg>
