<svg width="34" height="34" viewBox="0 0 34 34" fill="none" xmlns="http://www.w3.org/2000/svg">
<path d="M31.4586 17.4702L27.5358 8.18537C27.3743 7.79296 27.1363 7.43735 26.8346 7.13844C26.5342 6.84094 26.1772 6.60442 25.7834 6.44575C24.9929 6.1185 24.1032 6.1185 23.3127 6.44575L11.5431 11.336H5.51515C4.66374 11.3332 3.84632 11.6661 3.23999 12.2654C2.63507 12.8632 2.29082 13.6764 2.28516 14.5278V24.596C2.28657 25.0196 2.37157 25.4375 2.53449 25.8271C2.6974 26.2167 2.9354 26.5695 3.23574 26.867C3.53607 27.1645 3.89166 27.401 4.28266 27.5611C4.67366 27.7212 5.09157 27.802 5.51515 27.8005H23.5082C23.9304 27.802 24.3497 27.7212 24.7407 27.5611C25.1317 27.401 25.4873 27.1645 25.7862 26.867C26.0866 26.5695 26.3246 26.2167 26.4889 25.8271C26.6518 25.4375 26.7368 25.0196 26.7382 24.596V22.8706L29.7331 21.6281C30.5151 21.3009 31.1398 20.6818 31.4727 19.9012C31.6342 19.5173 31.7178 19.1022 31.715 18.6843C31.7136 18.2664 31.6257 17.8527 31.4586 17.4702ZM3.59273 14.5278C3.5984 14.0234 3.80524 13.5418 4.16507 13.189C4.52491 12.8363 5.01082 12.6408 5.51515 12.6437H6.97857C6.68107 13.4087 6.22491 14.1014 5.64124 14.678C5.05757 15.2545 4.35915 15.7022 3.59273 15.9912V14.5278ZM5.51515 26.493C5.2644 26.4944 5.01507 26.4463 4.78273 26.3528C4.5504 26.2578 4.33932 26.119 4.16082 25.9433C3.98232 25.7663 3.84066 25.5565 3.74291 25.3256C3.64516 25.0947 3.59415 24.8468 3.59273 24.596V23.1582C4.36057 23.4443 5.0604 23.8892 5.6469 24.4643C6.23199 25.0381 6.69099 25.7294 6.99274 26.493H5.51515ZM25.4307 24.596C25.4292 24.8468 25.3782 25.0947 25.2805 25.3256C25.1827 25.5565 25.0411 25.7663 24.8626 25.9433C24.6841 26.119 24.473 26.2578 24.2407 26.3528C24.0083 26.4463 23.759 26.4944 23.5082 26.493H22.2007C22.4897 25.7521 22.9288 25.0791 23.4884 24.5139C24.0494 23.95 24.7181 23.5066 25.4561 23.2106L25.4307 24.596ZM25.4307 21.8505C24.3455 22.2004 23.3595 22.8039 22.5534 23.6114C21.7487 24.4189 21.1481 25.4064 20.801 26.493H8.35274C7.99857 25.3852 7.37949 24.3793 6.55074 23.5633C5.72199 22.7487 4.70623 22.1466 3.59273 21.8108V17.3385C4.70765 17.0027 5.72482 16.4006 6.55499 15.5818C7.38374 14.763 8.0014 13.7558 8.35274 12.6437H20.801C21.1438 13.7345 21.7431 14.7262 22.5477 15.5365C23.3538 16.3468 24.3426 16.9517 25.4307 17.3002V21.8505ZM25.4307 15.9402C24.6897 15.6413 24.0182 15.1951 23.4572 14.6284C22.8948 14.0618 22.4542 13.3874 22.161 12.6437H23.4686C23.9729 12.6408 24.4588 12.8363 24.8187 13.189C25.1785 13.5418 25.3839 14.0234 25.391 14.5278L25.4307 15.9402ZM30.2827 19.4181C30.1878 19.6533 30.0462 19.8658 29.8662 20.0429C29.6863 20.2214 29.4724 20.3602 29.2358 20.4509L26.7382 21.4837V14.5278C26.7312 13.6764 26.3883 12.8632 25.782 12.2654C25.1771 11.6661 24.3596 11.3332 23.5082 11.336H14.8906L23.8227 7.63571C24.0621 7.55354 24.3143 7.50965 24.5679 7.5054C24.8172 7.50965 25.0637 7.55354 25.3003 7.63571C25.5341 7.72921 25.748 7.86801 25.9279 8.04651C26.1078 8.22359 26.2495 8.43471 26.3458 8.66846L30.2686 17.966C30.457 18.4307 30.4612 18.9492 30.2827 19.4181Z" fill="#BE763C"/>
<path d="M14.4979 23.0138C13.8519 23.0138 13.2187 22.8226 12.6818 22.4628C12.1434 22.1044 11.7255 21.593 11.4776 20.9966C11.2297 20.3988 11.1659 19.7414 11.292 19.1067C11.4181 18.4734 11.7298 17.8912 12.1859 17.4336C12.6435 16.9761 13.2258 16.6644 13.8604 16.5383C14.4951 16.4122 15.1524 16.4774 15.7488 16.7253C16.3467 16.9718 16.8567 17.3911 17.2165 17.9294C17.5749 18.4664 17.7676 19.0983 17.7676 19.7457C17.7676 20.6127 17.4233 21.4442 16.8099 22.0562C16.1965 22.6696 15.3649 23.0138 14.4979 23.0138ZM14.4979 17.7836C14.1098 17.7836 13.7315 17.8983 13.4085 18.1136C13.0855 18.3304 12.8348 18.6364 12.686 18.9948C12.5373 19.3532 12.499 19.747 12.5741 20.1281C12.6492 20.5078 12.8362 20.8577 13.111 21.1325C13.3858 21.4059 13.7343 21.593 14.1154 21.6695C14.4965 21.7446 14.8904 21.7063 15.2488 21.5576C15.6072 21.4088 15.9132 21.1581 16.1285 20.8351C16.3438 20.5121 16.46 20.1338 16.46 19.7457C16.46 19.2243 16.2532 18.7257 15.8848 18.3588C15.5165 17.9904 15.0178 17.7836 14.4979 17.7836Z" fill="#BE763C"/>
</svg>
