<svg width="75" height="76" viewBox="0 0 75 76" fill="none" xmlns="http://www.w3.org/2000/svg">
<g filter="url(#filter0_d_121_2019)">
<rect x="5" y="1.47217" width="65" height="65" rx="1" stroke="#C0C0C0" stroke-width="2"/>
<path fill-rule="evenodd" clip-rule="evenodd" d="M52.8746 36.7829L52.8722 36.7865C51.4408 39.0025 49.3832 40.6823 46.7508 41.8386C44.1566 42.994 41.1395 43.5533 37.7284 43.5533H30.2332V54.4722H21V14.4722H37.7284C41.1396 14.4722 44.1569 15.0315 46.7512 16.187C49.3833 17.3433 51.4409 19.023 52.8722 21.2389C54.3051 23.4573 55 26.0638 55 29.0127C55 31.929 54.3036 34.531 52.8769 36.7792L52.8746 36.7829ZM46.3099 17.1749C43.8839 16.0938 41.0234 15.5532 37.7284 15.5532H22.0863V53.3911H29.147V42.4722H37.7284C41.0234 42.4722 43.8839 41.9316 46.3099 40.8505C48.7721 39.7695 50.655 38.2199 51.9585 36.2019C53.262 34.1478 53.9137 31.7514 53.9137 29.0127C53.9137 26.2379 53.262 23.8415 51.9585 21.8235C50.655 19.8055 48.7721 18.256 46.3099 17.1749ZM37.4026 35.4451C40.349 35.4451 42.3977 34.8211 43.7211 33.7436C45.0159 32.6892 45.7125 31.1673 45.7125 29.0127C45.7125 26.8581 45.0159 25.3362 43.7211 24.2819C42.3977 23.2043 40.349 22.5803 37.4026 22.5803H30.2332V35.4451H37.4026ZM37.4026 36.5262C40.4803 36.5262 42.8158 35.8776 44.4089 34.5803C46.0021 33.283 46.7987 31.4271 46.7987 29.0127C46.7987 26.5983 46.0021 24.7424 44.4089 23.4451C42.8158 22.1478 40.4803 21.4992 37.4026 21.4992H29.147V36.5262H37.4026Z" fill="#BE763C"/>
</g>
<defs>
<filter id="filter0_d_121_2019" x="0" y="0.472168" width="75" height="75" filterUnits="userSpaceOnUse" color-interpolation-filters="sRGB">
<feFlood flood-opacity="0" result="BackgroundImageFix"/>
<feColorMatrix in="SourceAlpha" type="matrix" values="0 0 0 0 0 0 0 0 0 0 0 0 0 0 0 0 0 0 127 0" result="hardAlpha"/>
<feOffset dy="4"/>
<feGaussianBlur stdDeviation="2"/>
<feComposite in2="hardAlpha" operator="out"/>
<feColorMatrix type="matrix" values="0 0 0 0 0 0 0 0 0 0 0 0 0 0 0 0 0 0 0.25 0"/>
<feBlend mode="normal" in2="BackgroundImageFix" result="effect1_dropShadow_121_2019"/>
<feBlend mode="normal" in="SourceGraphic" in2="effect1_dropShadow_121_2019" result="shape"/>
</filter>
</defs>
</svg>
